<mxfile host="app.diagrams.net" modified="2024-01-22T09:02:43.818Z" agent="Mozilla/5.0 (Windows NT 10.0; Win64; x64) AppleWebKit/537.36 (KHTML, like Gecko) Chrome/120.0.0.0 Safari/537.36" etag="x7pSIPFH4dcSHcp7GsYx" version="22.1.21" type="github">
  <diagram name="Page-1" id="gTPe85rmwyjz3AC6jd_F">
    <mxGraphModel dx="1434" dy="780" grid="1" gridSize="10" guides="1" tooltips="1" connect="1" arrows="1" fold="1" page="1" pageScale="1" pageWidth="850" pageHeight="1100" math="0" shadow="0">
      <root>
        <mxCell id="0" />
        <mxCell id="1" parent="0" />
        <mxCell id="9m-a0nKdB5yF3qCpnH-D-1" value="" style="rounded=0;whiteSpace=wrap;html=1;" vertex="1" parent="1">
          <mxGeometry x="40" y="240" width="80" height="40" as="geometry" />
        </mxCell>
        <mxCell id="9m-a0nKdB5yF3qCpnH-D-16" value="" style="edgeStyle=orthogonalEdgeStyle;rounded=0;orthogonalLoop=1;jettySize=auto;html=1;entryX=0;entryY=0.5;entryDx=0;entryDy=0;" edge="1" parent="1" source="9m-a0nKdB5yF3qCpnH-D-2" target="9m-a0nKdB5yF3qCpnH-D-3">
          <mxGeometry relative="1" as="geometry">
            <Array as="points">
              <mxPoint x="320" y="180" />
            </Array>
          </mxGeometry>
        </mxCell>
        <mxCell id="9m-a0nKdB5yF3qCpnH-D-19" value="" style="edgeStyle=orthogonalEdgeStyle;rounded=0;orthogonalLoop=1;jettySize=auto;html=1;" edge="1" parent="1" source="9m-a0nKdB5yF3qCpnH-D-2" target="9m-a0nKdB5yF3qCpnH-D-13">
          <mxGeometry relative="1" as="geometry" />
        </mxCell>
        <mxCell id="9m-a0nKdB5yF3qCpnH-D-2" value="" style="rounded=0;whiteSpace=wrap;html=1;" vertex="1" parent="1">
          <mxGeometry x="200" y="240" width="120" height="40" as="geometry" />
        </mxCell>
        <mxCell id="9m-a0nKdB5yF3qCpnH-D-3" value="" style="rounded=0;whiteSpace=wrap;html=1;" vertex="1" parent="1">
          <mxGeometry x="400" y="160" width="120" height="40" as="geometry" />
        </mxCell>
        <mxCell id="9m-a0nKdB5yF3qCpnH-D-11" value="" style="edgeStyle=orthogonalEdgeStyle;rounded=0;orthogonalLoop=1;jettySize=auto;html=1;" edge="1" parent="1" source="9m-a0nKdB5yF3qCpnH-D-4" target="9m-a0nKdB5yF3qCpnH-D-2">
          <mxGeometry relative="1" as="geometry" />
        </mxCell>
        <mxCell id="9m-a0nKdB5yF3qCpnH-D-4" value="User" style="text;html=1;strokeColor=none;fillColor=none;align=center;verticalAlign=middle;whiteSpace=wrap;rounded=0;" vertex="1" parent="1">
          <mxGeometry x="50" y="245" width="60" height="30" as="geometry" />
        </mxCell>
        <mxCell id="9m-a0nKdB5yF3qCpnH-D-5" value="Masuk ke perpus" style="text;html=1;strokeColor=none;fillColor=none;align=center;verticalAlign=middle;whiteSpace=wrap;rounded=0;" vertex="1" parent="1">
          <mxGeometry x="230" y="245" width="60" height="30" as="geometry" />
        </mxCell>
        <mxCell id="9m-a0nKdB5yF3qCpnH-D-6" value="" style="rounded=0;whiteSpace=wrap;html=1;" vertex="1" parent="1">
          <mxGeometry x="400" y="240" width="120" height="40" as="geometry" />
        </mxCell>
        <mxCell id="9m-a0nKdB5yF3qCpnH-D-10" value="&amp;nbsp;Isi Kunjungan" style="text;html=1;strokeColor=none;fillColor=none;align=center;verticalAlign=middle;whiteSpace=wrap;rounded=0;" vertex="1" parent="1">
          <mxGeometry x="430" y="165" width="60" height="30" as="geometry" />
        </mxCell>
        <mxCell id="9m-a0nKdB5yF3qCpnH-D-13" value="Lihat Kunjungan" style="text;html=1;strokeColor=none;fillColor=none;align=center;verticalAlign=middle;whiteSpace=wrap;rounded=0;" vertex="1" parent="1">
          <mxGeometry x="430" y="245" width="60" height="30" as="geometry" />
        </mxCell>
        <mxCell id="9m-a0nKdB5yF3qCpnH-D-14" value="" style="rounded=0;whiteSpace=wrap;html=1;" vertex="1" parent="1">
          <mxGeometry x="400" y="320" width="120" height="40" as="geometry" />
        </mxCell>
        <mxCell id="9m-a0nKdB5yF3qCpnH-D-15" value="Cari Buku" style="text;html=1;strokeColor=none;fillColor=none;align=center;verticalAlign=middle;whiteSpace=wrap;rounded=0;" vertex="1" parent="1">
          <mxGeometry x="430" y="330" width="60" height="30" as="geometry" />
        </mxCell>
        <mxCell id="9m-a0nKdB5yF3qCpnH-D-22" value="" style="endArrow=classic;html=1;rounded=0;exitX=0.942;exitY=1.05;exitDx=0;exitDy=0;exitPerimeter=0;entryX=0;entryY=0.5;entryDx=0;entryDy=0;" edge="1" parent="1" target="9m-a0nKdB5yF3qCpnH-D-14">
          <mxGeometry width="50" height="50" relative="1" as="geometry">
            <mxPoint x="319.99999999999994" y="280" as="sourcePoint" />
            <mxPoint x="320" y="358" as="targetPoint" />
            <Array as="points">
              <mxPoint x="320" y="340" />
            </Array>
          </mxGeometry>
        </mxCell>
      </root>
    </mxGraphModel>
  </diagram>
</mxfile>
